<?xml version="1.0" encoding="UTF-8"?>
<!DOCTYPE svg PUBLIC "-//W3C//DTD SVG 1.1//EN" "http://www.w3.org/Graphics/SVG/1.1/DTD/svg11.dtd">
<!-- Creator: CorelDRAW 2020 (64-Bit) -->
<svg xmlns="http://www.w3.org/2000/svg" xml:space="preserve" width="362px" height="314px" version="1.1" shape-rendering="geometricPrecision" text-rendering="geometricPrecision" image-rendering="optimizeQuality" fill-rule="evenodd" clip-rule="evenodd"
viewBox="0 0 56.16 48.64"
 xmlns:xlink="http://www.w3.org/1999/xlink"
 xmlns:xodm="http://www.corel.com/coreldraw/odm/2003">
 <g id="Plan_x0020_1">
  <metadata id="CorelCorpID_0Corel-Layer"/>
  <g id="_1624285005040">
   <path fill="#BAC4E8" fill-rule="nonzero" d="M29.69 0.49l25.35 17.23c0.61,0.41 0.98,1.02 1.09,1.66 0.1,0.64 -0.05,1.32 -0.5,1.88l0 0.01c-0.27,0.33 -0.6,0.59 -0.97,0.76 -0.39,0.18 -0.81,0.27 -1.23,0.27 -0.27,0 -0.56,-0.04 -0.84,-0.12 -0.28,-0.08 -0.54,-0.21 -0.77,-0.36l-23.74 -16.14 -23.74 16.13c-0.61,0.42 -1.34,0.56 -2.02,0.47 -0.7,-0.1 -1.35,-0.45 -1.8,-1.01 -0.44,-0.57 -0.59,-1.25 -0.49,-1.88 0.1,-0.65 0.48,-1.26 1.08,-1.67l25.36 -17.23c0.48,-0.32 1.05,-0.49 1.61,-0.49 0.56,0 1.13,0.17 1.61,0.49z"/>
   <path fill="#BAC4E8" fill-rule="nonzero" d="M44.34 22.48c0.46,-0.46 1.1,-0.74 1.8,-0.74 0.7,0 1.33,0.28 1.79,0.74 0.46,0.46 0.75,1.1 0.75,1.8l0 21.82c0,0.7 -0.29,1.33 -0.75,1.79 -0.46,0.46 -1.09,0.75 -1.79,0.75l-12.9 0c-0.66,0 -1.26,-0.26 -1.72,-0.68 -0.46,-0.43 -0.76,-1.01 -0.81,-1.67l-0.01 -12.69c0,-0.72 -0.29,-1.38 -0.77,-1.85 -0.47,-0.48 -1.13,-0.77 -1.85,-0.77 -0.73,0 -1.38,0.29 -1.86,0.77 -0.47,0.47 -0.76,1.13 -0.76,1.85l-0.01 12.7c-0.06,0.65 -0.36,1.23 -0.81,1.66 -0.46,0.42 -1.06,0.68 -1.72,0.68l-12.9 0c-0.7,0 -1.34,-0.29 -1.79,-0.75 -0.46,-0.46 -0.75,-1.09 -0.75,-1.79l0 -21.82c0,-0.7 0.29,-1.34 0.75,-1.8 0.46,-0.46 1.09,-0.74 1.79,-0.74 0.7,0 1.33,0.28 1.79,0.74 0.46,0.46 0.75,1.1 0.75,1.8l0 19.28 7.82 0 0 -9.96c0,-2.12 0.87,-4.05 2.26,-5.44 1.4,-1.39 3.32,-2.26 5.44,-2.26 2.12,0 4.05,0.87 5.44,2.26 1.39,1.39 2.26,3.32 2.26,5.44l0 9.96 7.82 0 0 -19.28c0,-0.7 0.28,-1.34 0.74,-1.8z"/>
  </g>
 </g>
</svg>
