<?xml version="1.0" encoding="UTF-8"?>
<!DOCTYPE svg PUBLIC "-//W3C//DTD SVG 1.1//EN" "http://www.w3.org/Graphics/SVG/1.1/DTD/svg11.dtd">
<!-- Creator: CorelDRAW 2020 (64-Bit) -->
<svg xmlns="http://www.w3.org/2000/svg" xml:space="preserve" width="324px" height="324px" version="1.1" shape-rendering="geometricPrecision" text-rendering="geometricPrecision" image-rendering="optimizeQuality" fill-rule="evenodd" clip-rule="evenodd"
viewBox="0 0 55.93 55.93"
 xmlns:xlink="http://www.w3.org/1999/xlink"
 xmlns:xodm="http://www.corel.com/coreldraw/odm/2003">
 <g id="Plan_x0020_1">
  <metadata id="CorelCorpID_0Corel-Layer"/>
  <path fill="#009846" d="M14.46 24.84c1.29,-1.12 3.25,-0.99 4.37,0.3l6.37 7.29 11.73 -15.71c1.03,-1.37 2.98,-1.66 4.35,-0.63 1.38,1.03 1.66,2.98 0.63,4.35l-14.03 18.78c-0.14,0.17 -0.28,0.33 -0.45,0.47 -1.29,1.13 -3.25,1 -4.38,-0.29l-8.88 -10.18c-1.13,-1.29 -1,-3.25 0.29,-4.38z"/>
  <path fill="#009846" fill-rule="nonzero" d="M27.97 0c7.72,0 14.71,3.13 19.77,8.19 5.06,5.06 8.19,12.05 8.19,19.78 0,7.72 -3.13,14.71 -8.19,19.77 -5.06,5.06 -12.05,8.19 -19.77,8.19 -7.73,0 -14.72,-3.13 -19.78,-8.19 -5.06,-5.06 -8.19,-12.05 -8.19,-19.77 0,-7.73 3.13,-14.72 8.19,-19.78 5.06,-5.06 12.05,-8.19 19.78,-8.19zm17.74 10.23c-4.54,-4.54 -10.82,-7.35 -17.74,-7.35 -6.93,0 -13.2,2.81 -17.74,7.35 -4.54,4.54 -7.35,10.81 -7.35,17.74 0,6.92 2.81,13.2 7.35,17.74 4.54,4.54 10.81,7.34 17.74,7.34 6.92,0 13.2,-2.8 17.74,-7.34 4.53,-4.54 7.34,-10.82 7.34,-17.74 0,-6.93 -2.81,-13.2 -7.34,-17.74z"/>
 </g>
</svg>
